<?xml version="1.0" standalone="no"?><!DOCTYPE svg PUBLIC "-//W3C//DTD SVG 1.1//EN" "http://www.w3.org/Graphics/SVG/1.1/DTD/svg11.dtd"><svg t="1646839928526" class="icon" viewBox="0 0 1024 1024" version="1.1" xmlns="http://www.w3.org/2000/svg" p-id="2436" xmlns:xlink="http://www.w3.org/1999/xlink" width="512" height="512"><defs><style type="text/css"></style></defs><path d="M511.700234 0c282.634394 0 511.700176 229.065782 511.700176 511.700176s-229.065782 511.700176-511.700176 511.700175-511.700176-229.065782-511.700175-511.700175 229.165723-511.700176 511.700175-511.700176z" fill="#3E5BF2" p-id="2437"></path><path d="M667.608882 303.422214l24.085887-91.246536-70.05895-18.489166-23.886004 90.646886-62.663284-16.590279 23.886005-90.646886-70.05895-18.489167-23.886005 90.646887-95.943782-25.285185-12.492681 47.472185 69.259419 18.289283L326.408803 667.209057l-69.259418-18.289283-12.49268 47.472184 95.943783 25.285184-23.985946 90.447004 70.05895 18.489167 23.886004-90.646887 58.765567 15.590865-23.886004 90.646886 70.05895 18.489167 23.886004-90.646887 3.198126 0.799532c108.336522 28.583252 175.397228-19.288698 193.086864-86.049581 15.29104-57.766153-13.292212-119.829787-97.642788-153.210228 74.25649 5.596721 123.827445-26.984189 137.219598-77.954324 15.091158-57.166504-15.99063-122.927972-107.636931-154.209642z m-40.076518 355.491704c-7.795432 29.582666-37.777865 77.754441-99.741558 61.364044l-104.638688-27.583837 45.173531-170.899864 111.934413 29.482725c19.988288 5.396838 64.762053 40.876049 47.272302 107.636932z m42.974819-228.865899c-13.492094 50.970135-41.875464 75.155963-101.640445 59.465157l-86.249463-22.786649 39.976576-151.611165 103.239508 27.184072c13.19227 3.597892 60.564513 27.583838 44.673824 87.748585z" fill="#FFFFFF" p-id="2438"></path></svg>