<?xml version="1.0" encoding="utf-8"?>
<svg width="300px" height="80px" viewBox="0 0 300 80" version="1.1" xmlns:xlink="http://www.w3.org/1999/xlink" xmlns="http://www.w3.org/2000/svg">
  <defs>
    <rect width="300" height="80" id="artboard_1" />
    <clipPath id="clip_1">
      <use xlink:href="#artboard_1" clip-rule="evenodd" />
    </clipPath>
  </defs>
  <g id="Artboard" clip-path="url(#clip_1)">
    <use xlink:href="#artboard_1" stroke="none" fill="#686868" fill-opacity="0" />
    <g id="Longee" transform="translate(66 11)">
      <g id="Long" fill="#FFFFFF">
        <path d="M3.66211 11.1167L3.66211 46.8833L26.1719 46.8833L26.1719 41.2437L10.0098 41.2437L10.0098 11.1167L3.66211 11.1167ZM90.6494 48.8364L86.792 53.5972Q91.6504 57.1372 97.6563 57.1372Q102.686 57.1372 106.25 54.8789Q109.814 52.6206 109.814 48.6655Q109.814 41.5122 100.903 41.5122Q99.6338 41.5122 97.8516 41.8784Q96.0693 42.2446 95.3125 42.2446Q93.6279 42.2446 93.6279 41.2681Q93.6279 40.7065 94.7632 40.1816Q95.8984 39.6567 96.0693 39.6567L97.0703 39.8032Q98.1689 39.9253 98.8281 39.9253Q102.979 39.9253 105.701 37.252Q108.423 34.5786 108.423 30.1108Q108.423 26.9858 106.909 24.6909L109.814 22.5669L105.591 18.7339L103.198 21.5171Q100.83 20.1987 97.3145 20.1987Q92.8223 20.1987 89.7461 22.9453Q86.6699 25.6919 86.6699 29.8911Q86.6699 35.2134 91.1377 38.1187Q89.7461 38.7046 88.6963 39.9497Q87.6465 41.1948 87.6465 42.4888Q87.6465 47.0054 93.9453 47.0054Q94.9707 47.0054 96.9971 46.7612Q99.0234 46.5171 100.049 46.5171Q103.833 46.5171 103.833 48.8364Q103.833 50.2036 102.124 50.9849Q100.415 51.7661 97.7783 51.7661Q93.8477 51.7661 90.6494 48.8364ZM32.6782 24.0073Q29.2236 27.7671 29.2236 33.7485Q29.2236 39.9253 32.5317 43.6484Q35.8398 47.3716 41.7969 47.3716Q47.6318 47.3716 50.9888 43.6851Q54.3457 39.9985 54.3457 33.7485Q54.3457 27.4741 51.0498 23.8608Q47.7539 20.2476 41.7969 20.2476Q36.1328 20.2476 32.6782 24.0073ZM76.0498 46.8833L76.0498 31.771Q76.0498 28.4263 74.7681 26.8882Q73.4863 25.3501 70.5811 25.3501Q69.2383 25.3501 67.7124 26.1069Q66.1865 26.8638 65.332 27.9868L65.332 46.8833L59.2285 46.8833L59.2285 20.7358L63.623 20.7358L64.7461 23.1772Q67.2363 20.2476 72.0947 20.2476Q76.7578 20.2476 79.4556 23.043Q82.1533 25.8384 82.1533 30.8433L82.1533 46.8833L76.0498 46.8833ZM94.1772 33.6387Q92.8955 32.2349 92.8955 29.9155Q92.8955 27.8403 94.2139 26.522Q95.5322 25.2036 97.6318 25.2036Q99.6338 25.2036 100.891 26.5708Q102.148 27.938 102.148 29.9155Q102.148 32.3081 100.977 33.6753Q99.8047 35.0425 97.6318 35.0425Q95.459 35.0425 94.1772 33.6387ZM41.7969 42.3911Q35.5713 42.3911 35.5713 33.7485Q35.5713 29.7202 37.2559 27.4741Q38.9404 25.228 41.7969 25.228Q47.998 25.228 47.998 33.7485Q47.998 37.8989 46.3257 40.145Q44.6533 42.3911 41.7969 42.3911Z" />
      </g>
      <g id="e" fill="#FAE800">
        <path d="M137.183 35.6772L118.506 35.6772Q118.677 38.8022 120.654 40.5356Q122.632 42.269 125.977 42.269Q130.151 42.269 132.324 40.0962L134.692 44.7593Q131.47 47.3716 125.073 47.3716Q119.092 47.3716 115.613 43.8682Q112.134 40.3647 112.134 34.0903Q112.134 27.9136 115.955 24.0806Q119.775 20.2476 125.122 20.2476Q130.811 20.2476 134.253 23.6411Q137.695 27.0347 137.695 32.2837Q137.695 33.4067 137.183 35.6772ZM118.726 31.0874L131.567 31.0874Q130.933 25.3501 125.22 25.3501Q119.995 25.3501 118.726 31.0874Z" />
      </g>
      <g id="e" fill="#FFFFFF">
        <path d="M165.918 35.6772L147.241 35.6772Q147.412 38.8022 149.39 40.5356Q151.367 42.269 154.712 42.269Q158.887 42.269 161.06 40.0962L163.428 44.7593Q160.205 47.3716 153.809 47.3716Q147.827 47.3716 144.348 43.8682Q140.869 40.3647 140.869 34.0903Q140.869 27.9136 144.69 24.0806Q148.511 20.2476 153.857 20.2476Q159.546 20.2476 162.988 23.6411Q166.431 27.0347 166.431 32.2837Q166.431 33.4067 165.918 35.6772ZM147.461 31.0874L160.303 31.0874Q159.668 25.3501 153.955 25.3501Q148.73 25.3501 147.461 31.0874Z" />
      </g>
    </g>
    <path d="M0 3.5C0 1.567 1.567 0 3.5 0C5.433 0 7 1.567 7 3.5C7 5.433 5.433 7 3.5 7C1.567 7 0 5.433 0 3.5Z" transform="translate(172 54)" id="Ellipse" fill="#FAE800" fill-rule="evenodd" stroke="none" />
  </g>
</svg>