<?xml version="1.0" encoding="utf-8"?>
<svg width="1024px" height="1024px" viewBox="0 0 1024 1024" version="1.1" xmlns:xlink="http://www.w3.org/1999/xlink" xmlns="http://www.w3.org/2000/svg">
  <defs>
    <path d="M0 0L1024 0L1024 1024L0 1024L0 0Z" id="path_1" />
    <clipPath id="mask_1">
      <use xlink:href="#path_1" />
    </clipPath>
  </defs>
  <g id="browser-404">
    <path d="M0 0L1024 0L1024 1024L0 1024L0 0Z" id="Background" fill="none" fill-rule="evenodd" stroke="none" />
    <g clip-path="url(#mask_1)">
      <path d="M965.138 0.016004L964.962 0L59.3739 0L59.1979 0.016004C26.4862 0.12803 0 25.798 0 57.5175L0 964.61C0 997.401 26.5826 1023.98 59.3739 1023.98L964.962 1023.98C997.753 1023.98 1024.34 997.401 1024.34 964.61L1024.34 57.5175C1024.34 25.798 997.85 0.128033 965.138 0.0160065L965.138 0.016004Z" id="Shape" fill="#CCCCCC" fill-rule="evenodd" stroke="none" />
      <path d="M864.203 0L0 0L0 736.156C-0.00414276 744.649 3.36629 752.794 9.36938 758.8C15.3725 764.806 23.5162 768.18 32.0079 768.18L864.203 768.18C872.694 768.18 880.838 764.806 886.841 758.8C892.844 752.794 896.214 744.648 896.21 736.157L896.21 0L864.203 0L864.203 0Z" transform="translate(64.11102 191.93298)" id="Shape" fill="#FFFFFF" fill-rule="evenodd" stroke="none" />
      <path d="M672.142 3.8147e-06L671.982 0.0160065L31.9919 0.0160065C14.3207 0.0246315 7.62939e-06 14.3523 0 32.0235C0 49.6947 14.3207 64.0224 31.9919 64.031L672.142 64.031C689.824 64.031 704.157 49.6972 704.157 32.0156C704.157 14.3339 689.824 9.15527e-05 672.142 0L672.142 3.8147e-06ZM768.164 3.8147e-06C750.478 0.00883102 736.148 14.3533 736.157 32.0394C736.166 49.7255 750.51 64.0558 768.196 64.047C785.882 64.0382 800.213 49.6938 800.204 32.0077C800.195 14.3216 785.851 -0.00868988 768.165 0L768.164 3.8147e-06ZM864.187 3.8147e-06C846.501 0.00883102 832.171 14.3533 832.179 32.0394C832.188 49.7255 846.533 64.0558 864.219 64.047C881.905 64.0382 896.235 49.6938 896.226 32.0077C896.218 14.3216 881.873 -0.00868988 864.187 0L864.187 3.8147e-06Z" transform="translate(64.12665 63.918976)" id="Shape" fill="#FFFFFF" fill-rule="evenodd" stroke="none" />
      <path d="M135.408 88.5327L88.2927 88.5327L88.2927 127.758L57.1814 127.758L131.647 0.0960388L78.2263 0.0960388L0 132.879L0 171.144L88.2927 171.144L88.2927 224.821L135.408 224.821L135.408 171.144L160.23 171.144L160.23 127.758L135.408 127.758L135.408 88.5327L135.408 88.5327ZM288.612 0C256.492 0 232.47 10.2104 216.531 30.5832C200.575 50.956 192.605 78.1943 192.605 112.202C192.605 146.242 200.575 173.465 216.531 193.853C232.47 214.226 256.492 224.421 288.612 224.421C320.731 224.421 344.753 214.226 360.693 193.853C376.648 173.481 384.618 146.242 384.618 112.202C384.618 78.1943 376.648 50.972 360.693 30.5832C344.737 10.2104 320.715 0 288.612 0L288.612 0ZM322.812 164.823C315.514 178.058 304.103 184.683 288.596 184.683C273.088 184.683 261.677 178.058 254.38 164.823C247.066 151.572 243.401 134.095 243.401 112.378C243.401 90.6612 247.066 73.1852 254.38 59.9181C261.677 46.683 273.088 40.0734 288.596 40.0734C304.103 40.0734 315.514 46.683 322.812 59.9181C330.125 73.1852 333.79 90.6613 333.79 112.378C333.79 134.095 330.125 151.572 322.812 164.823L322.812 164.823ZM551.457 127.758L551.457 88.5327L504.342 88.5327L504.342 127.758L473.231 127.758L547.696 0.0959778L494.276 0.0959778L416.049 132.879L416.049 171.144L504.342 171.144L504.342 224.821L551.457 224.821L551.457 171.144L576.279 171.144L576.279 127.758L551.457 127.758L551.457 127.758Z" transform="translate(223.78044 479.5524)" id="Shape" fill="#FF4A6E" fill-opacity="0.2" fill-rule="evenodd" stroke="none" />
    </g>
  </g>
</svg>